<svg xmlns="http://www.w3.org/2000/svg" viewBox="0 0 512.001 512.001" style="enable-background:new 0 0 512.001 512.001" xml:space="preserve"><path style="fill:#5b5d6e" d="M273.102 435.575H179.04l17.102-76.961h76.96z"/><path style="fill:#707487" d="M409.921 367.165H33.67c-14.168 0-25.653-11.485-25.653-25.653V102.08c0-14.168 11.485-25.653 25.653-25.653h376.251c14.168 0 25.653 11.485 25.653 25.653v239.432c0 14.168-11.485 25.653-25.653 25.653z"/><path style="fill:#464655" d="M42.221 110.631h359.148v222.33H42.221z"/><path style="fill:#9bf57d" d="M384.267 298.756c-37.781 0-68.409-30.628-68.409-68.409v-17.102c0-37.781 30.628-68.409 68.409-68.409 37.781 0 68.409 30.628 68.409 68.409v17.102c0 37.781-30.628 68.409-68.409 68.409zM434.621 328.887c-5.508-2.36-11.676-2.76-17.395-.973a110.254 110.254 0 0 1-32.958 5.046c-11.487 0-22.544-1.79-32.958-5.046-5.72-1.788-11.887-1.389-17.395.973l-48.633 20.842a34.204 34.204 0 0 0-20.731 31.439v37.303c0 9.446 7.656 17.102 17.102 17.102H486.88c9.446 0 17.102-7.656 17.102-17.102v-37.303a34.205 34.205 0 0 0-20.731-31.439l-48.63-20.842z"/><path style="fill:#8ce16e" d="M341.511 414.062V367.14c0-15.506 6.656-29.604 17.165-37.216a112.403 112.403 0 0 1-7.367-2.008c-5.72-1.788-11.888-1.388-17.395.973l-48.632 20.842a34.2 34.2 0 0 0-20.731 31.438v37.303c0 9.445 7.658 17.102 17.102 17.102h76.96c-9.444.001-17.102-9.631-17.102-21.512zM367.165 230.347v-17.102c0-33.888 12.333-61.945 28.503-67.383-3.715-.624-7.507-1.026-11.401-1.026-37.781 0-68.409 30.628-68.409 68.409v17.102c0 37.781 30.628 68.409 68.409 68.409 3.894 0 7.685-.401 11.401-1.026-16.17-5.438-28.503-33.495-28.503-67.383z"/><path style="fill:#b9ff82" d="M469.779 409.921a8.549 8.549 0 0 1-8.551-8.551v-14.564l-40.543-17.378a8.547 8.547 0 0 1-4.493-11.228c1.853-4.339 6.915-6.343 11.223-4.488l45.728 19.599a8.544 8.544 0 0 1 5.186 7.859v20.2a8.548 8.548 0 0 1-8.55 8.551zM413.87 256.001a8.517 8.517 0 0 1-4.284-1.157c-4.083-2.372-5.478-7.603-3.106-11.687a25.498 25.498 0 0 0 3.441-12.81v-17.102a25.652 25.652 0 0 0-19.24-24.843 8.543 8.543 0 0 1-6.138-10.417c1.178-4.584 5.854-7.307 10.413-6.142 18.881 4.877 32.067 21.904 32.067 41.403v17.102a42.701 42.701 0 0 1-5.745 21.395 8.555 8.555 0 0 1-7.408 4.258z"/><path d="M238.363 367.165a8.017 8.017 0 0 0-8.017-8.017H33.67c-9.725 0-17.637-7.912-17.637-17.637V102.08c0-9.725 7.912-17.637 17.637-17.637h376.251c9.725 0 17.637 7.912 17.637 17.637v25.653c0 4.427 3.588 8.017 8.017 8.017s8.017-3.589 8.017-8.017V102.08c0-18.566-15.105-33.67-33.67-33.67H33.67C15.105 68.41 0 83.514 0 102.08v239.432c0 18.566 15.105 33.67 33.67 33.67h196.676a8.016 8.016 0 0 0 8.017-8.017z"/><path d="M358.079 110.631a8.017 8.017 0 0 0-8.017-8.017H42.221a8.017 8.017 0 0 0-8.017 8.017v171.023c0 4.427 3.588 8.017 8.017 8.017s8.017-3.589 8.017-8.017V118.648h299.825a8.016 8.016 0 0 0 8.016-8.017zM264.017 332.961a8.017 8.017 0 0 0-8.017-8.017H50.238v-9.086c0-4.427-3.588-8.017-8.017-8.017s-8.017 3.589-8.017 8.017v17.102a8.017 8.017 0 0 0 8.017 8.017H256a8.016 8.016 0 0 0 8.017-8.016zM401.37 118.648a8.017 8.017 0 0 0 8.017-8.017 8.017 8.017 0 0 0-8.017-8.017h-17.102a8.017 8.017 0 0 0-8.017 8.017 8.017 8.017 0 0 0 8.017 8.017h17.102zM238.898 427.558h-49.59l6.061-24.244a8.018 8.018 0 0 0-15.556-3.889l-7.032 28.132h-19.394c-4.428 0-8.017 3.589-8.017 8.017s3.588 8.017 8.017 8.017h85.511a8.017 8.017 0 1 0 0-16.033zM384.267 306.773c42.141 0 76.426-34.285 76.426-76.426v-17.102c0-42.141-34.285-76.426-76.426-76.426s-76.426 34.285-76.426 76.426v17.102c0 42.141 34.285 76.426 76.426 76.426zm-60.392-93.528c0-33.3 27.092-60.392 60.392-60.392s60.392 27.092 60.392 60.392v17.102c0 33.3-27.092 60.392-60.392 60.392s-60.392-27.092-60.392-60.392v-17.102zM486.411 342.361l-48.633-20.842c-7.329-3.141-15.478-3.587-22.944-1.256a102.583 102.583 0 0 1-61.133 0c-7.462-2.332-15.61-1.887-22.944 1.256l-48.633 20.842a42.173 42.173 0 0 0-25.589 38.807v37.304c0 13.851 11.268 25.119 25.119 25.119h205.228c13.851 0 25.119-11.268 25.119-25.119v-37.303a42.176 42.176 0 0 0-25.59-38.808zm9.556 76.111c0 5.01-4.076 9.086-9.086 9.086H281.653c-5.01 0-9.086-4.076-9.086-9.086v-37.303c0-10.49 6.23-19.938 15.872-24.07l48.633-20.842a17.582 17.582 0 0 1 6.916-1.434c1.673 0 3.336.247 4.93.746a118.705 118.705 0 0 0 70.7 0c3.816-1.193 8.023-.949 11.845.689l48.633 20.842a26.157 26.157 0 0 1 15.872 24.07v37.302h-.001z"/></svg>